<?xml version="1.0" encoding="UTF-8"?>
<!DOCTYPE svg PUBLIC "-//W3C//DTD SVG 1.1//EN" "http://www.w3.org/Graphics/SVG/1.1/DTD/svg11.dtd">
<svg xmlns="http://www.w3.org/2000/svg" version="1.1" width="500px" height="500px" style="shape-rendering:geometricPrecision; text-rendering:geometricPrecision; image-rendering:optimizeQuality; fill-rule:evenodd; clip-rule:evenodd" xmlns:xlink="http://www.w3.org/1999/xlink">
<g><path style="opacity:0.016" fill="#b87334" d="M 156.5,54.5 C 218.501,54.3333 280.501,54.5 342.5,55C 343.308,55.3076 343.975,55.8076 344.5,56.5C 281.167,57.8333 217.833,57.8333 154.5,56.5C 155.243,55.8182 155.909,55.1515 156.5,54.5 Z"/></g>
<g><path style="opacity:0.934" fill="#b87235" d="M 407.5,123.5 C 407.167,123.5 406.833,123.5 406.5,123.5C 406.167,123.5 405.833,123.5 405.5,123.5C 385.167,123.5 364.833,123.5 344.5,123.5C 344.5,113.167 344.5,102.833 344.5,92.5C 302.663,92.168 260.997,92.5014 219.5,93.5C 219.5,103.5 219.5,113.5 219.5,123.5C 219.389,124.117 219.056,124.617 218.5,125C 197.329,125.829 176.329,125.663 155.5,124.5C 176.34,124.831 197.007,124.497 217.5,123.5C 218.494,113.681 218.827,103.681 218.5,93.5C 197.526,91.5112 176.193,90.8445 154.5,91.5C 154.5,81.1667 154.5,70.8333 154.5,60.5C 217.833,60.5 281.167,60.5 344.5,60.5C 344.334,70.8387 344.5,81.172 345,91.5C 345.414,91.9574 345.914,92.2907 346.5,92.5C 347.021,81.691 347.854,71.0243 349,60.5C 350.469,68.9972 350.969,77.6638 350.5,86.5C 425.167,87.1667 425.167,87.8333 350.5,88.5C 350.5,89.5 350.5,90.5 350.5,91.5C 369.5,91.5 388.5,91.5 407.5,91.5C 407.5,102.167 407.5,112.833 407.5,123.5 Z"/></g>
<g><path style="opacity:0.911" fill="#b97234" d="M 154.5,91.5 C 176.193,90.8445 197.526,91.5112 218.5,93.5C 218.167,93.5 217.833,93.5 217.5,93.5C 196.673,92.5027 175.673,92.1694 154.5,92.5C 154.191,103.248 154.524,113.915 155.5,124.5C 145.167,124.5 134.833,124.5 124.5,124.5C 114.167,124.5 103.833,124.5 93.5,124.5C 93.8083,134.915 93.475,145.249 92.5,155.5C 82.1667,155.5 71.8333,155.5 61.5,155.5C 61.5,165.833 61.5,176.167 61.5,186.5C 61.1724,197.014 61.5058,207.347 62.5,217.5C 72.3194,218.494 82.3194,218.827 92.5,218.5C 82.6806,219.494 72.6806,219.827 62.5,219.5C 62.1667,219.5 61.8333,219.5 61.5,219.5C 60.5242,208.915 60.1909,198.248 60.5,187.5C 50.1667,187.5 39.8333,187.5 29.5,187.5C 29.5,176.5 29.5,165.5 29.5,154.5C 37.8333,154.5 46.1667,154.5 54.5,154.5C 54.5,153.5 54.5,152.5 54.5,151.5C 45.9959,151.967 37.6626,151.467 29.5,150C 37.6626,148.533 45.9959,148.033 54.5,148.5C 54.3336,140.826 54.5003,133.159 55,125.5C 55.3076,124.692 55.8076,124.025 56.5,123.5C 57.4986,133.812 57.8319,144.145 57.5,154.5C 58.5,154.5 59.5,154.5 60.5,154.5C 60.1681,144.145 60.5014,133.812 61.5,123.5C 69.778,122.53 78.1114,122.197 86.5,122.5C 86.5,121.5 86.5,120.5 86.5,119.5C 77.8269,119.666 69.1603,119.5 60.5,119C 68.9972,117.531 77.6638,117.031 86.5,117.5C 86.1688,109.14 86.5021,100.807 87.5,92.5C 88.1795,101.392 88.8462,110.226 89.5,119C 88.6198,120.356 88.2865,121.856 88.5,123.5C 89.5,123.5 90.5,123.5 91.5,123.5C 91.5,112.833 91.5,102.167 91.5,91.5C 110.5,91.5 129.5,91.5 148.5,91.5C 148.5,90.5 148.5,89.5 148.5,88.5C 73.8333,87.8333 73.8333,87.1667 148.5,86.5C 148.031,77.6638 148.531,68.9972 150,60.5C 151.146,71.0243 151.979,81.691 152.5,92.5C 153.183,92.1373 153.85,91.8039 154.5,91.5 Z"/></g>
<g><path style="opacity:0.997" fill="#c57938" d="M 219.5,93.5 C 260.997,92.5014 302.663,92.168 344.5,92.5C 344.5,102.833 344.5,113.167 344.5,123.5C 364.833,123.5 385.167,123.5 405.5,123.5C 405.5,134.167 405.5,144.833 405.5,155.5C 404.506,145.347 404.172,135.014 404.5,124.5C 394.5,124.5 384.5,124.5 374.5,124.5C 363.833,124.5 353.167,124.5 342.5,124.5C 342.5,114.167 342.5,103.833 342.5,93.5C 301.5,93.5 260.5,93.5 219.5,93.5 Z"/></g>
<g><path style="opacity:0.023" fill="#b57034" d="M 412.5,117.5 C 412.5,118.167 412.5,118.833 412.5,119.5C 412.5,120.5 412.5,121.5 412.5,122.5C 412.158,123.338 411.492,123.672 410.5,123.5C 410.714,121.856 410.38,120.356 409.5,119C 410.154,110.226 410.82,101.392 411.5,92.5C 412.498,100.807 412.831,109.14 412.5,117.5 Z"/></g>
<g><path style="opacity:1" fill="#d8833e" d="M 219.5,93.5 C 260.5,93.5 301.5,93.5 342.5,93.5C 342.5,103.833 342.5,114.167 342.5,124.5C 332.5,124.5 322.5,124.5 312.5,124.5C 312.5,134.5 312.5,144.5 312.5,154.5C 322.681,154.173 332.681,154.506 342.5,155.5C 332.319,155.173 322.319,155.506 312.5,156.5C 311.167,176.833 311.167,197.167 312.5,217.5C 312.5,218.167 312.833,218.5 313.5,218.5C 322.986,219.494 332.652,219.827 342.5,219.5C 342.5,220.5 342.5,221.5 342.5,222.5C 342.5,241.5 342.5,260.5 342.5,279.5C 322.167,279.5 301.833,279.5 281.5,279.5C 281.5,269.833 281.5,260.167 281.5,250.5C 291.319,249.506 301.319,249.173 311.5,249.5C 310.828,218.171 310.495,186.838 310.5,155.5C 300.985,155.173 291.652,155.506 282.5,156.5C 282.167,156.5 281.833,156.5 281.5,156.5C 281.5,155.833 281.167,155.5 280.5,155.5C 280.5,155.167 280.5,154.833 280.5,154.5C 280.5,144.5 280.5,134.5 280.5,124.5C 260.091,124.821 239.758,124.488 219.5,123.5C 219.5,113.5 219.5,103.5 219.5,93.5 Z"/></g>
<g><path style="opacity:1" fill="#3d1e12" d="M 216.5,94.5 C 216.5,103.833 216.5,113.167 216.5,122.5C 207.143,122.832 197.81,122.498 188.5,121.5C 197.141,120.502 205.808,120.169 214.5,120.5C 214.5,112.833 214.5,105.167 214.5,97.5C 205.5,97.5 196.5,97.5 187.5,97.5C 187.5,96.5 187.5,95.5 187.5,94.5C 197.167,94.5 206.833,94.5 216.5,94.5 Z"/></g>
<g><path style="opacity:1" fill="#8a4a2a" d="M 186.5,93.5 C 186.5,102.5 186.5,111.5 186.5,120.5C 186.5,121.5 186.5,122.5 186.5,123.5C 176.5,123.5 166.5,123.5 156.5,123.5C 156.5,113.5 156.5,103.5 156.5,93.5C 166.5,93.5 176.5,93.5 186.5,93.5 Z"/></g>
<g><path style="opacity:1" fill="#6e3d21" d="M 186.5,93.5 C 196.833,93.5 207.167,93.5 217.5,93.5C 217.833,93.5 218.167,93.5 218.5,93.5C 218.827,103.681 218.494,113.681 217.5,123.5C 217.827,113.652 217.494,103.986 216.5,94.5C 206.833,94.5 197.167,94.5 187.5,94.5C 187.5,95.5 187.5,96.5 187.5,97.5C 187.825,105.352 187.492,113.018 186.5,120.5C 186.5,111.5 186.5,102.5 186.5,93.5 Z"/></g>
<g><path style="opacity:1" fill="#4b2816" d="M 216.5,94.5 C 217.494,103.986 217.827,113.652 217.5,123.5C 207.167,123.5 196.833,123.5 186.5,123.5C 186.5,122.5 186.5,121.5 186.5,120.5C 187.492,113.018 187.825,105.352 187.5,97.5C 196.5,97.5 205.5,97.5 214.5,97.5C 214.5,105.167 214.5,112.833 214.5,120.5C 205.808,120.169 197.141,120.502 188.5,121.5C 197.81,122.498 207.143,122.832 216.5,122.5C 216.5,113.167 216.5,103.833 216.5,94.5 Z"/></g>
<g><path style="opacity:0.022" fill="#8b4b2b" d="M 412.5,117.5 C 421.336,117.031 430.003,117.531 438.5,119C 429.84,119.5 421.173,119.666 412.5,119.5C 412.5,118.833 412.5,118.167 412.5,117.5 Z"/></g>
<g><path style="opacity:0.881" fill="#894a2a" d="M 412.5,122.5 C 420.889,122.197 429.222,122.53 437.5,123.5C 438.499,133.812 438.832,144.145 438.5,154.5C 427.833,154.5 417.167,154.5 406.5,154.5C 406.5,144.167 406.5,133.833 406.5,123.5C 406.833,123.5 407.167,123.5 407.5,123.5C 408.5,123.5 409.5,123.5 410.5,123.5C 411.492,123.672 412.158,123.338 412.5,122.5 Z"/></g>
<g><path style="opacity:1" fill="#9b5c2f" d="M 217.5,93.5 C 207.167,93.5 196.833,93.5 186.5,93.5C 176.5,93.5 166.5,93.5 156.5,93.5C 156.5,103.5 156.5,113.5 156.5,123.5C 166.5,123.5 176.5,123.5 186.5,123.5C 196.833,123.5 207.167,123.5 217.5,123.5C 197.007,124.497 176.34,124.831 155.5,124.5C 154.524,113.915 154.191,103.248 154.5,92.5C 175.673,92.1694 196.673,92.5027 217.5,93.5 Z"/></g>
<g><path style="opacity:1" fill="#d7823d" d="M 124.5,124.5 C 124.5,134.833 124.5,145.167 124.5,155.5C 124.5,165.833 124.5,176.167 124.5,186.5C 124.167,186.5 123.833,186.5 123.5,186.5C 123.5,176.167 123.5,165.833 123.5,155.5C 113.167,155.5 102.833,155.5 92.5,155.5C 93.475,145.249 93.8083,134.915 93.5,124.5C 103.833,124.5 114.167,124.5 124.5,124.5 Z"/></g>
<g><path style="opacity:1" fill="#d8823d" d="M 374.5,124.5 C 384.5,124.5 394.5,124.5 404.5,124.5C 404.172,135.014 404.506,145.347 405.5,155.5C 405.5,156.167 405.833,156.5 406.5,156.5C 406.5,156.833 406.5,157.167 406.5,157.5C 405.506,166.986 405.173,176.652 405.5,186.5C 395.5,186.5 385.5,186.5 375.5,186.5C 375.821,165.758 375.488,145.091 374.5,124.5 Z"/></g>
<g><path style="opacity:1" fill="#e8984f" d="M 219.5,123.5 C 239.758,124.488 260.091,124.821 280.5,124.5C 280.5,134.5 280.5,144.5 280.5,154.5C 259.831,154.333 239.164,154.5 218.5,155C 217.513,165.418 217.18,175.918 217.5,186.5C 197.027,187.804 176.693,187.804 156.5,186.5C 156.5,176.167 156.5,165.833 156.5,155.5C 145.833,155.5 135.167,155.5 124.5,155.5C 124.5,145.167 124.5,134.833 124.5,124.5C 134.833,124.5 145.167,124.5 155.5,124.5C 176.329,125.663 197.329,125.829 218.5,125C 219.056,124.617 219.389,124.117 219.5,123.5 Z"/></g>
<g><path style="opacity:1" fill="#e7974f" d="M 342.5,124.5 C 353.167,124.5 363.833,124.5 374.5,124.5C 375.488,145.091 375.821,165.758 375.5,186.5C 385.5,186.5 395.5,186.5 405.5,186.5C 405.173,176.652 405.506,166.986 406.5,157.5C 406.5,158.5 406.5,159.5 406.5,160.5C 415.167,160.5 423.833,160.5 432.5,160.5C 432.175,178.077 432.508,195.577 433.5,213C 423.839,213.5 414.172,213.666 404.5,213.5C 404.5,212.5 404.5,211.5 404.5,210.5C 412.833,210.5 421.167,210.5 429.5,210.5C 429.5,194.833 429.5,179.167 429.5,163.5C 424.167,163.5 418.833,163.5 413.5,163.5C 413.5,171.833 413.5,180.167 413.5,188.5C 412.5,188.5 411.5,188.5 410.5,188.5C 410.5,179.833 410.5,171.167 410.5,162.5C 409.5,162.5 408.5,162.5 407.5,162.5C 407.5,171.167 407.5,179.833 407.5,188.5C 396.833,188.5 386.167,188.5 375.5,188.5C 375.666,198.506 375.5,208.506 375,218.5C 364.916,219.486 354.749,219.819 344.5,219.5C 344.83,238.674 344.497,257.674 343.5,276.5C 343.83,258.326 343.497,240.326 342.5,222.5C 342.5,221.5 342.5,220.5 342.5,219.5C 343.5,219.167 344.167,218.5 344.5,217.5C 354.167,217.5 363.833,217.5 373.5,217.5C 373.5,207.5 373.5,197.5 373.5,187.5C 363.75,187.194 354.084,187.527 344.5,188.5C 344.672,187.508 344.338,186.842 343.5,186.5C 343.828,175.986 343.494,165.653 342.5,155.5C 332.681,154.506 322.681,154.173 312.5,154.5C 312.5,144.5 312.5,134.5 312.5,124.5C 322.5,124.5 332.5,124.5 342.5,124.5 Z"/></g>
<g><path style="opacity:0.014" fill="#b87234" d="M 26.5,186.5 C 25.5,186.5 24.5,186.5 23.5,186.5C 23.025,175.67 23.525,165.003 25,154.5C 26.475,165.003 26.975,175.67 26.5,186.5 Z"/></g>
<g><path style="opacity:0.994" fill="#9f5b31" d="M 405.5,123.5 C 405.833,123.5 406.167,123.5 406.5,123.5C 406.5,133.833 406.5,144.167 406.5,154.5C 417.167,154.5 427.833,154.5 438.5,154.5C 438.5,165.167 438.5,175.833 438.5,186.5C 448.833,186.5 459.167,186.5 469.5,186.5C 469.5,186.833 469.5,187.167 469.5,187.5C 458.833,187.5 448.167,187.5 437.5,187.5C 437.5,176.833 437.5,166.167 437.5,155.5C 426.833,155.5 416.167,155.5 405.5,155.5C 405.5,144.833 405.5,134.167 405.5,123.5 Z"/></g>
<g><path style="opacity:0.906" fill="#8a4a2a" d="M 469.5,186.5 C 459.167,186.5 448.833,186.5 438.5,186.5C 438.5,175.833 438.5,165.167 438.5,154.5C 439.5,154.5 440.5,154.5 441.5,154.5C 441.168,144.145 441.501,133.812 442.5,123.5C 443.192,124.025 443.692,124.692 444,125.5C 444.5,133.159 444.666,140.826 444.5,148.5C 453.004,148.033 461.337,148.533 469.5,150C 461.337,151.467 453.004,151.967 444.5,151.5C 444.5,152.5 444.5,153.5 444.5,154.5C 452.833,154.5 461.167,154.5 469.5,154.5C 469.5,165.167 469.5,175.833 469.5,186.5 Z"/></g>
<g><path style="opacity:0.014" fill="#8a4a2a" d="M 475.5,186.5 C 474.5,186.5 473.5,186.5 472.5,186.5C 472.025,175.67 472.525,165.003 474,154.5C 475.475,165.003 475.975,175.67 475.5,186.5 Z"/></g>
<g><path style="opacity:1" fill="#a66234" d="M 312.5,156.5 C 322.319,155.506 332.319,155.173 342.5,155.5C 343.494,165.653 343.828,175.986 343.5,186.5C 343.828,197.014 343.494,207.347 342.5,217.5C 342.5,207.167 342.5,196.833 342.5,186.5C 342.5,176.5 342.5,166.5 342.5,156.5C 332.5,156.5 322.5,156.5 312.5,156.5 Z"/></g>
<g><path style="opacity:0.997" fill="#cd8241" d="M 92.5,155.5 C 82.6806,156.494 72.6806,156.827 62.5,156.5C 62.5,166.167 62.5,175.833 62.5,185.5C 72.8387,185.334 83.172,185.5 93.5,186C 94.056,186.383 94.3893,186.883 94.5,187.5C 94.5,197.5 94.5,207.5 94.5,217.5C 94.1583,218.338 93.4916,218.672 92.5,218.5C 93.8177,208.069 93.8177,197.735 92.5,187.5C 82.3468,186.506 72.0135,186.172 61.5,186.5C 61.5,176.167 61.5,165.833 61.5,155.5C 71.8333,155.5 82.1667,155.5 92.5,155.5 Z"/></g>
<g><path style="opacity:1" fill="#b9733c" d="M 280.5,154.5 C 280.5,154.833 280.5,155.167 280.5,155.5C 281.167,155.5 281.5,155.833 281.5,156.5C 281.5,177.5 281.5,198.5 281.5,219.5C 270.833,219.5 260.167,219.5 249.5,219.5C 239.167,219.5 228.833,219.5 218.5,219.5C 218.167,219.5 217.833,219.5 217.5,219.5C 217.5,208.5 217.5,197.5 217.5,186.5C 217.18,175.918 217.513,165.418 218.5,155C 239.164,154.5 259.831,154.333 280.5,154.5 Z"/></g>
<g><path style="opacity:1" fill="#995630" d="M 248.5,156.5 C 239.014,157.494 229.348,157.827 219.5,157.5C 219.827,167.348 219.494,177.014 218.5,186.5C 218.5,176.5 218.5,166.5 218.5,156.5C 228.5,156.5 238.5,156.5 248.5,156.5 Z"/></g>
<g><path style="opacity:1" fill="#7d4426" d="M 280.5,155.5 C 280.5,176.5 280.5,197.5 280.5,218.5C 259.833,218.5 239.167,218.5 218.5,218.5C 218.5,207.833 218.5,197.167 218.5,186.5C 219.494,177.014 219.827,167.348 219.5,157.5C 229.348,157.827 239.014,157.494 248.5,156.5C 259.085,155.524 269.752,155.191 280.5,155.5 Z"/></g>
<g><path style="opacity:1" fill="#8b4b2b" d="M 222.5,159.5 C 231.167,159.5 239.833,159.5 248.5,159.5C 248.5,168.167 248.5,176.833 248.5,185.5C 239.5,185.5 230.5,185.5 221.5,185.5C 222.411,176.874 222.745,168.208 222.5,159.5 Z"/></g>
<g><path style="opacity:1" fill="#4b2817" d="M 250.5,159.5 C 251.33,168.658 251.83,177.991 252,187.5C 253.47,178.668 253.97,169.668 253.5,160.5C 261.167,160.5 268.833,160.5 276.5,160.5C 276.5,178.5 276.5,196.5 276.5,214.5C 267.5,214.5 258.5,214.5 249.5,214.5C 249.804,213.85 250.137,213.183 250.5,212.5C 249.702,205.55 249.202,198.55 249,191.5C 247.366,190.01 247.699,188.676 250,187.5C 250.5,178.173 250.666,168.839 250.5,159.5 Z"/></g>
<g><path style="opacity:1" fill="#8c4c2b" d="M 312.5,156.5 C 322.5,156.5 332.5,156.5 342.5,156.5C 342.5,166.5 342.5,176.5 342.5,186.5C 332.5,186.5 322.5,186.5 312.5,186.5C 312.5,196.833 312.5,207.167 312.5,217.5C 311.167,197.167 311.167,176.833 312.5,156.5 Z"/></g>
<g><path style="opacity:1" fill="#935a30" d="M 124.5,155.5 C 135.167,155.5 145.833,155.5 156.5,155.5C 156.5,165.833 156.5,176.167 156.5,186.5C 156.167,186.5 155.833,186.5 155.5,186.5C 155.5,186.833 155.5,187.167 155.5,187.5C 145.167,187.5 134.833,187.5 124.5,187.5C 124.5,187.167 124.5,186.833 124.5,186.5C 124.5,176.167 124.5,165.833 124.5,155.5 Z"/></g>
<g><path style="opacity:1" fill="#482414" d="M 154.5,157.5 C 154.5,166.833 154.5,176.167 154.5,185.5C 145.833,185.5 137.167,185.5 128.5,185.5C 126.528,176.56 125.861,167.227 126.5,157.5C 135.833,157.5 145.167,157.5 154.5,157.5 Z"/></g>
<g><path style="opacity:1" fill="#59301a" d="M 154.5,157.5 C 145.167,157.5 135.833,157.5 126.5,157.5C 125.861,167.227 126.528,176.56 128.5,185.5C 128.5,185.833 128.5,186.167 128.5,186.5C 127.5,186.5 126.5,186.5 125.5,186.5C 125.5,176.5 125.5,166.5 125.5,156.5C 135.348,156.173 145.014,156.506 154.5,157.5 Z"/></g>
<g><path style="opacity:1" fill="#572f1a" d="M 128.5,159.5 C 136.167,159.5 143.833,159.5 151.5,159.5C 151.5,167.167 151.5,174.833 151.5,182.5C 143.833,182.5 136.167,182.5 128.5,182.5C 128.5,174.833 128.5,167.167 128.5,159.5 Z"/></g>
<g><path style="opacity:1" fill="#714123" d="M 154.5,157.5 C 155.494,166.986 155.827,176.652 155.5,186.5C 146.5,186.5 137.5,186.5 128.5,186.5C 128.5,186.167 128.5,185.833 128.5,185.5C 137.167,185.5 145.833,185.5 154.5,185.5C 154.5,176.167 154.5,166.833 154.5,157.5 Z"/></g>
<g><path style="opacity:1" fill="#402013" d="M 279.5,216.5 C 269.111,217.141 259.111,216.474 249.5,214.5C 258.5,214.5 267.5,214.5 276.5,214.5C 276.5,196.5 276.5,178.5 276.5,160.5C 268.833,160.5 261.167,160.5 253.5,160.5C 253.97,169.668 253.47,178.668 252,187.5C 251.83,177.991 251.33,168.658 250.5,159.5C 250.5,158.833 250.5,158.167 250.5,157.5C 259.986,156.506 269.652,156.173 279.5,156.5C 279.5,176.5 279.5,196.5 279.5,216.5 Z"/></g>
<g><path style="opacity:1" fill="#e8984f" d="M 92.5,155.5 C 102.833,155.5 113.167,155.5 123.5,155.5C 123.5,165.833 123.5,176.167 123.5,186.5C 114.014,187.494 104.348,187.827 94.5,187.5C 94.3893,186.883 94.056,186.383 93.5,186C 83.172,185.5 72.8387,185.334 62.5,185.5C 62.5,175.833 62.5,166.167 62.5,156.5C 72.6806,156.827 82.6806,156.494 92.5,155.5 Z"/></g>
<g><path style="opacity:1" fill="#e8974f" d="M 281.5,250.5 C 280.506,259.986 280.173,269.652 280.5,279.5C 249.828,279.474 219.162,279.807 188.5,280.5C 188.5,260.167 188.5,239.833 188.5,219.5C 198.068,218.183 207.735,218.183 217.5,219.5C 217.833,219.5 218.167,219.5 218.5,219.5C 218.5,229.5 218.5,239.5 218.5,249.5C 228.833,249.5 239.167,249.5 249.5,249.5C 249.5,239.5 249.5,229.5 249.5,219.5C 260.167,219.5 270.833,219.5 281.5,219.5C 281.5,198.5 281.5,177.5 281.5,156.5C 281.833,156.5 282.167,156.5 282.5,156.5C 291.652,155.506 300.985,155.173 310.5,155.5C 310.495,186.838 310.828,218.171 311.5,249.5C 301.319,249.173 291.319,249.506 281.5,250.5 Z"/></g>
<g><path style="opacity:1" fill="#f8a355" d="M 282.5,156.5 C 283.832,166.311 284.499,176.477 284.5,187C 284.167,197.167 283.833,207.333 283.5,217.5C 282.5,197.178 282.167,176.844 282.5,156.5 Z"/></g>
<g><path style="opacity:1" fill="#e89850" d="M 406.5,156.5 C 416.5,156.5 426.5,156.5 436.5,156.5C 436.5,176.833 436.5,197.167 436.5,217.5C 426.161,217.334 415.828,217.5 405.5,218C 404.513,228.418 404.18,238.918 404.5,249.5C 394.652,249.173 384.986,249.506 375.5,250.5C 374.506,259.986 374.173,269.652 374.5,279.5C 364.167,279.5 353.833,279.5 343.5,279.5C 343.5,278.5 343.5,277.5 343.5,276.5C 344.497,257.674 344.83,238.674 344.5,219.5C 354.749,219.819 364.916,219.486 375,218.5C 375.5,208.506 375.666,198.506 375.5,188.5C 386.167,188.5 396.833,188.5 407.5,188.5C 407.5,179.833 407.5,171.167 407.5,162.5C 408.5,162.5 409.5,162.5 410.5,162.5C 410.5,171.167 410.5,179.833 410.5,188.5C 411.5,188.5 412.5,188.5 413.5,188.5C 413.5,180.167 413.5,171.833 413.5,163.5C 418.833,163.5 424.167,163.5 429.5,163.5C 429.5,179.167 429.5,194.833 429.5,210.5C 421.167,210.5 412.833,210.5 404.5,210.5C 404.5,211.5 404.5,212.5 404.5,213.5C 414.172,213.666 423.839,213.5 433.5,213C 432.508,195.577 432.175,178.077 432.5,160.5C 423.833,160.5 415.167,160.5 406.5,160.5C 406.5,159.5 406.5,158.5 406.5,157.5C 406.5,157.167 406.5,156.833 406.5,156.5 Z"/></g>
<g><path style="opacity:1" fill="#d9823d" d="M 344.5,217.5 C 344.5,207.833 344.5,198.167 344.5,188.5C 354.084,187.527 363.75,187.194 373.5,187.5C 373.5,197.5 373.5,207.5 373.5,217.5C 363.833,217.5 354.167,217.5 344.5,217.5 Z"/></g>
<g><path style="opacity:0.956" fill="#d9833d" d="M 29.5,187.5 C 39.8333,187.5 50.1667,187.5 60.5,187.5C 60.1909,198.248 60.5242,208.915 61.5,219.5C 61.5,239.833 61.5,260.167 61.5,280.5C 50.8333,280.5 40.1667,280.5 29.5,280.5C 29.5,249.5 29.5,218.5 29.5,187.5 Z"/></g>
<g><path style="opacity:1" fill="#d9833d" d="M 123.5,186.5 C 123.833,186.5 124.167,186.5 124.5,186.5C 124.5,186.833 124.5,187.167 124.5,187.5C 124.5,197.5 124.5,207.5 124.5,217.5C 114.5,217.5 104.5,217.5 94.5,217.5C 94.5,207.5 94.5,197.5 94.5,187.5C 104.348,187.827 114.014,187.494 123.5,186.5 Z"/></g>
<g><path style="opacity:1" fill="#d9833d" d="M 155.5,186.5 C 155.833,186.5 156.167,186.5 156.5,186.5C 176.693,187.804 197.027,187.804 217.5,186.5C 217.5,197.5 217.5,208.5 217.5,219.5C 207.735,218.183 198.068,218.183 188.5,219.5C 188.167,219.5 187.833,219.5 187.5,219.5C 177.554,217.525 167.221,216.858 156.5,217.5C 156.167,217.5 155.833,217.5 155.5,217.5C 155.5,207.5 155.5,197.5 155.5,187.5C 155.5,187.167 155.5,186.833 155.5,186.5 Z"/></g>
<g><path style="opacity:0.014" fill="#d8823d" d="M 23.5,186.5 C 24.5,186.5 25.5,186.5 26.5,186.5C 26.5,217.833 26.5,249.167 26.5,280.5C 25.5,280.5 24.5,280.5 23.5,280.5C 23.5,249.167 23.5,217.833 23.5,186.5 Z"/></g>
<g><path style="opacity:1" fill="#552d19" d="M 250.5,157.5 C 250.5,158.167 250.5,158.833 250.5,159.5C 250.666,168.839 250.5,178.173 250,187.5C 247.699,188.676 247.366,190.01 249,191.5C 249.202,198.55 249.702,205.55 250.5,212.5C 250.137,213.183 249.804,213.85 249.5,214.5C 259.111,216.474 269.111,217.141 279.5,216.5C 259.674,217.497 239.674,217.83 219.5,217.5C 219.5,207.5 219.5,197.5 219.5,187.5C 229.172,187.666 238.839,187.5 248.5,187C 249.155,177.068 249.822,167.235 250.5,157.5 Z"/></g>
<g><path style="opacity:0.955" fill="#b97335" d="M 405.5,155.5 C 416.167,155.5 426.833,155.5 437.5,155.5C 437.5,166.167 437.5,176.833 437.5,187.5C 448.167,187.5 458.833,187.5 469.5,187.5C 469.5,218.5 469.5,249.5 469.5,280.5C 458.5,280.5 447.5,280.5 436.5,280.5C 436.5,270.5 436.5,260.5 436.5,250.5C 426.5,250.5 416.5,250.5 406.5,250.5C 405.833,250.167 405.167,249.833 404.5,249.5C 404.18,238.918 404.513,228.418 405.5,218C 415.828,217.5 426.161,217.334 436.5,217.5C 436.5,197.167 436.5,176.833 436.5,156.5C 426.5,156.5 416.5,156.5 406.5,156.5C 405.833,156.5 405.5,156.167 405.5,155.5 Z"/></g>
<g><path style="opacity:0.014" fill="#b87234" d="M 472.5,186.5 C 473.5,186.5 474.5,186.5 475.5,186.5C 475.5,217.833 475.5,249.167 475.5,280.5C 474.5,280.5 473.5,280.5 472.5,280.5C 472.5,249.167 472.5,217.833 472.5,186.5 Z"/></g>
<g><path style="opacity:1" fill="#995b2e" d="M 61.5,186.5 C 72.0135,186.172 82.3468,186.506 92.5,187.5C 82.5,187.5 72.5,187.5 62.5,187.5C 62.5,197.5 62.5,207.5 62.5,217.5C 61.5058,207.347 61.1724,197.014 61.5,186.5 Z"/></g>
<g><path style="opacity:1" fill="#68391f" d="M 342.5,186.5 C 342.5,196.833 342.5,207.167 342.5,217.5C 333.014,218.494 323.348,218.827 313.5,218.5C 312.833,218.5 312.5,218.167 312.5,217.5C 312.5,207.167 312.5,196.833 312.5,186.5C 322.5,186.5 332.5,186.5 342.5,186.5 Z"/></g>
<g><path style="opacity:1" fill="#6f3f21" d="M 92.5,187.5 C 93.8177,197.735 93.8177,208.069 92.5,218.5C 82.3194,218.827 72.3194,218.494 62.5,217.5C 62.5,207.5 62.5,197.5 62.5,187.5C 72.5,187.5 82.5,187.5 92.5,187.5 Z"/></g>
<g><path style="opacity:1" fill="#552d19" d="M 313.5,187.5 C 322.5,188.806 331.5,188.806 340.5,187.5C 341.498,197.144 341.832,206.81 341.5,216.5C 332.167,216.5 322.833,216.5 313.5,216.5C 313.5,206.833 313.5,197.167 313.5,187.5 Z"/></g>
<g><path style="opacity:1" fill="#e8984f" d="M 124.5,187.5 C 134.833,187.5 145.167,187.5 155.5,187.5C 155.5,197.5 155.5,207.5 155.5,217.5C 154.503,238.327 154.169,259.327 154.5,280.5C 144.873,279.579 135.206,279.245 125.5,279.5C 125.819,269.251 125.486,259.084 124.5,249C 113.839,248.5 103.172,248.333 92.5,248.5C 92.5,258.833 92.5,269.167 92.5,279.5C 82.5,279.5 72.5,279.5 62.5,279.5C 62.5,259.5 62.5,239.5 62.5,219.5C 72.6806,219.827 82.6806,219.494 92.5,218.5C 93.4916,218.672 94.1583,218.338 94.5,217.5C 104.5,217.5 114.5,217.5 124.5,217.5C 124.5,207.5 124.5,197.5 124.5,187.5 Z"/></g>
<g><path style="opacity:1" fill="#472414" d="M 63.5,188.5 C 72.8333,188.5 82.1667,188.5 91.5,188.5C 91.5,197.833 91.5,207.167 91.5,216.5C 82.1667,216.5 72.8333,216.5 63.5,216.5C 63.5,207.167 63.5,197.833 63.5,188.5 Z"/></g>
<g><path style="opacity:1" fill="#572f1a" d="M 66.5,190.5 C 74.1667,190.5 81.8333,190.5 89.5,190.5C 89.5,198.5 89.5,206.5 89.5,214.5C 81.8333,214.5 74.1667,214.5 66.5,214.5C 66.5,206.5 66.5,198.5 66.5,190.5 Z"/></g>
<g><path style="opacity:1" fill="#bc7035" d="M 343.5,186.5 C 344.338,186.842 344.672,187.508 344.5,188.5C 344.5,198.167 344.5,207.833 344.5,217.5C 344.167,218.5 343.5,219.167 342.5,219.5C 332.652,219.827 322.986,219.494 313.5,218.5C 323.348,218.827 333.014,218.494 342.5,217.5C 343.494,207.347 343.828,197.014 343.5,186.5 Z"/></g>
<g><path style="opacity:1" fill="#9a5a31" d="M 156.5,218.5 C 166.5,218.5 176.5,218.5 186.5,218.5C 186.173,228.681 186.506,238.681 187.5,248.5C 187.828,259.346 187.494,270.013 186.5,280.5C 176.167,281.833 165.833,281.833 155.5,280.5C 155.169,259.66 155.503,238.993 156.5,218.5 Z"/></g>
<g><path style="opacity:1" fill="#b96f3a" d="M 156.5,218.5 C 156.5,218.167 156.5,217.833 156.5,217.5C 167.221,216.858 177.554,217.525 187.5,219.5C 187.5,229.167 187.5,238.833 187.5,248.5C 186.506,238.681 186.173,228.681 186.5,218.5C 176.5,218.5 166.5,218.5 156.5,218.5 Z"/></g>
<g><path style="opacity:1" fill="#d9833e" d="M 218.5,219.5 C 228.833,219.5 239.167,219.5 249.5,219.5C 249.5,229.5 249.5,239.5 249.5,249.5C 239.167,249.5 228.833,249.5 218.5,249.5C 218.5,239.5 218.5,229.5 218.5,219.5 Z"/></g>
<g><path style="opacity:1" fill="#8a4a2a" d="M 406.5,218.5 C 416.5,218.5 426.5,218.5 436.5,218.5C 436.5,228.833 436.5,239.167 436.5,249.5C 426.5,249.5 416.5,249.5 406.5,249.5C 406.5,239.167 406.5,228.833 406.5,218.5 Z"/></g>
<g><path style="opacity:1" fill="#ca8244" d="M 155.5,217.5 C 155.833,217.5 156.167,217.5 156.5,217.5C 156.5,217.833 156.5,218.167 156.5,218.5C 155.503,238.993 155.169,259.66 155.5,280.5C 155.167,280.5 154.833,280.5 154.5,280.5C 154.169,259.327 154.503,238.327 155.5,217.5 Z"/></g>
<g><path style="opacity:1" fill="#e7974f" d="M 406.5,250.5 C 416.5,250.5 426.5,250.5 436.5,250.5C 436.5,260.5 436.5,270.5 436.5,280.5C 436.167,280.5 435.833,280.5 435.5,280.5C 425.833,280.5 416.167,280.5 406.5,280.5C 406.5,270.5 406.5,260.5 406.5,250.5 Z"/></g>
<g><path style="opacity:1" fill="#d8823d" d="M 62.5,281.5 C 72.5,281.5 82.5,281.5 92.5,281.5C 92.5,291.5 92.5,301.5 92.5,311.5C 82.8333,311.5 73.1667,311.5 63.5,311.5C 63.1667,311.5 62.8333,311.5 62.5,311.5C 62.5,301.5 62.5,291.5 62.5,281.5 Z"/></g>
<g><path style="opacity:1" fill="#d9833d" d="M 435.5,281.5 C 435.5,291.167 435.5,300.833 435.5,310.5C 425.833,310.5 416.167,310.5 406.5,310.5C 406.5,300.833 406.5,291.167 406.5,281.5C 416.346,281.591 426.013,281.591 435.5,281.5 Z"/></g>
<g><path style="opacity:1" fill="#af6433" d="M 29.5,281.5 C 29.5,281.167 29.5,280.833 29.5,280.5C 40.1667,280.5 50.8333,280.5 61.5,280.5C 62.1667,280.5 62.5,280.833 62.5,281.5C 62.5,291.5 62.5,301.5 62.5,311.5C 62.1667,311.5 61.8333,311.5 61.5,311.5C 61.5,301.5 61.5,291.5 61.5,281.5C 50.8333,281.5 40.1667,281.5 29.5,281.5 Z"/></g>
<g><path style="opacity:1" fill="#de8c46" d="M 61.5,219.5 C 61.8333,219.5 62.1667,219.5 62.5,219.5C 62.5,239.5 62.5,259.5 62.5,279.5C 72.5,279.5 82.5,279.5 92.5,279.5C 92.5,269.167 92.5,258.833 92.5,248.5C 103.172,248.333 113.839,248.5 124.5,249C 125.486,259.084 125.819,269.251 125.5,279.5C 135.206,279.245 144.873,279.579 154.5,280.5C 154.833,280.5 155.167,280.5 155.5,280.5C 165.833,281.833 176.167,281.833 186.5,280.5C 187.494,270.013 187.828,259.346 187.5,248.5C 187.5,238.833 187.5,229.167 187.5,219.5C 187.833,219.5 188.167,219.5 188.5,219.5C 188.5,239.833 188.5,260.167 188.5,280.5C 219.162,279.807 249.828,279.474 280.5,279.5C 280.173,269.652 280.506,259.986 281.5,250.5C 281.5,260.167 281.5,269.833 281.5,279.5C 301.833,279.5 322.167,279.5 342.5,279.5C 342.5,260.5 342.5,241.5 342.5,222.5C 343.497,240.326 343.83,258.326 343.5,276.5C 343.5,277.5 343.5,278.5 343.5,279.5C 353.833,279.5 364.167,279.5 374.5,279.5C 374.173,269.652 374.506,259.986 375.5,250.5C 384.986,249.506 394.652,249.173 404.5,249.5C 405.167,249.833 405.833,250.167 406.5,250.5C 406.5,260.5 406.5,270.5 406.5,280.5C 416.167,280.5 425.833,280.5 435.5,280.5C 435.5,280.833 435.5,281.167 435.5,281.5C 426.013,281.591 416.346,281.591 406.5,281.5C 406.5,291.167 406.5,300.833 406.5,310.5C 406.167,310.5 405.833,310.5 405.5,310.5C 405.5,300.5 405.5,290.5 405.5,280.5C 395.5,280.5 385.5,280.5 375.5,280.5C 375.5,291.167 375.5,301.833 375.5,312.5C 374.833,312.5 374.5,312.833 374.5,313.5C 363.448,314.143 352.781,313.476 342.5,311.5C 342.833,311.5 343.167,311.5 343.5,311.5C 353.5,312.833 363.5,312.833 373.5,311.5C 374.494,301.347 374.828,291.014 374.5,280.5C 364.5,280.5 354.5,280.5 344.5,280.5C 343.833,280.5 343.167,280.5 342.5,280.5C 322.091,280.179 301.758,280.512 281.5,281.5C 260.5,280.167 239.5,280.167 218.5,281.5C 218.167,281.5 217.833,281.5 217.5,281.5C 207.828,281.334 198.161,281.5 188.5,282C 187.514,291.75 187.181,301.584 187.5,311.5C 197.5,311.5 207.5,311.5 217.5,311.5C 217.5,311.833 217.5,312.167 217.5,312.5C 207.167,312.5 196.833,312.5 186.5,312.5C 186.5,302.5 186.5,292.5 186.5,282.5C 176.5,282.5 166.5,282.5 156.5,282.5C 156.917,302.498 157.25,322.498 157.5,342.5C 198.003,342.168 238.337,342.501 278.5,343.5C 238.139,343.511 197.472,343.511 156.5,343.5C 156.5,343.167 156.5,342.833 156.5,342.5C 156.828,331.986 156.494,321.653 155.5,311.5C 144.931,310.182 134.265,310.182 123.5,311.5C 123.5,301.5 123.5,291.5 123.5,281.5C 113.833,281.5 104.167,281.5 94.5,281.5C 94.5,291.5 94.5,301.5 94.5,311.5C 93.8333,311.5 93.1667,311.5 92.5,311.5C 92.5,301.5 92.5,291.5 92.5,281.5C 82.5,281.5 72.5,281.5 62.5,281.5C 62.5,280.833 62.1667,280.5 61.5,280.5C 61.5,260.167 61.5,239.833 61.5,219.5 Z"/></g>
<g><path style="opacity:1" fill="#d8823d" d="M 217.5,281.5 C 217.5,291.5 217.5,301.5 217.5,311.5C 207.5,311.5 197.5,311.5 187.5,311.5C 187.181,301.584 187.514,291.75 188.5,282C 198.161,281.5 207.828,281.334 217.5,281.5 Z"/></g>
<g><path style="opacity:1" fill="#d8823d" d="M 125.5,281.5 C 135.167,281.5 144.833,281.5 154.5,281.5C 154.5,290.167 154.5,298.833 154.5,307.5C 144.833,307.5 135.167,307.5 125.5,307.5C 125.5,298.833 125.5,290.167 125.5,281.5 Z"/></g>
<g><path style="opacity:1" fill="#3e1f12" d="M 156.5,250.5 C 156.833,250.5 157.167,250.5 157.5,250.5C 158.167,250.5 158.833,250.5 159.5,250.5C 159.5,259.167 159.5,267.833 159.5,276.5C 167.167,276.5 174.833,276.5 182.5,276.5C 182.197,267.749 182.53,259.082 183.5,250.5C 185.473,259.775 186.14,269.442 185.5,279.5C 176.167,279.5 166.833,279.5 157.5,279.5C 156.506,270.014 156.173,260.348 156.5,250.5 Z"/></g>
<g><path style="opacity:1" fill="#60361e" d="M 157.5,250.5 C 166.652,249.506 175.985,249.173 185.5,249.5C 186.494,259.653 186.828,269.986 186.5,280.5C 176.652,280.827 166.986,280.494 157.5,279.5C 166.833,279.5 176.167,279.5 185.5,279.5C 186.14,269.442 185.473,259.775 183.5,250.5C 175.5,250.5 167.5,250.5 159.5,250.5C 158.833,250.5 158.167,250.5 157.5,250.5 Z"/></g>
<g><path style="opacity:1" fill="#4b2817" d="M 159.5,250.5 C 167.5,250.5 175.5,250.5 183.5,250.5C 182.53,259.082 182.197,267.749 182.5,276.5C 174.833,276.5 167.167,276.5 159.5,276.5C 159.5,267.833 159.5,259.167 159.5,250.5 Z"/></g>
<g><path style="opacity:1" fill="#d8823d" d="M 375.5,250.5 C 385.167,250.5 394.833,250.5 404.5,250.5C 404.5,260.167 404.5,269.833 404.5,279.5C 394.833,279.5 385.167,279.5 375.5,279.5C 375.5,269.833 375.5,260.167 375.5,250.5 Z"/></g>
<g><path style="opacity:1" fill="#d8823d" d="M 93.5,249.5 C 103.506,249.334 113.506,249.5 123.5,250C 124.486,260.084 124.819,270.251 124.5,280.5C 114.167,280.5 103.833,280.5 93.5,280.5C 93.5,270.167 93.5,259.833 93.5,249.5 Z"/></g>
<g><path style="opacity:1" fill="#814327" d="M 185.5,249.5 C 175.985,249.173 166.652,249.506 157.5,250.5C 157.167,250.5 156.833,250.5 156.5,250.5C 157.452,240.218 157.786,229.885 157.5,219.5C 166.833,219.5 176.167,219.5 185.5,219.5C 185.5,229.5 185.5,239.5 185.5,249.5 Z"/></g>
<g><path style="opacity:1" fill="#8b4b2a" d="M 159.5,222.5 C 167.5,222.5 175.5,222.5 183.5,222.5C 183.666,230.84 183.5,239.173 183,247.5C 175.253,248.482 167.42,248.815 159.5,248.5C 159.5,239.833 159.5,231.167 159.5,222.5 Z"/></g>
<g><path style="opacity:1" fill="#e7974f" d="M 123.5,311.5 C 113.833,311.5 104.167,311.5 94.5,311.5C 94.5,301.5 94.5,291.5 94.5,281.5C 104.167,281.5 113.833,281.5 123.5,281.5C 123.5,291.5 123.5,301.5 123.5,311.5 Z"/></g>
<g><path style="opacity:1" fill="#e7974f" d="M 405.5,310.5 C 405.167,311.167 404.833,311.833 404.5,312.5C 394.833,312.5 385.167,312.5 375.5,312.5C 375.5,301.833 375.5,291.167 375.5,280.5C 385.5,280.5 395.5,280.5 405.5,280.5C 405.5,290.5 405.5,300.5 405.5,310.5 Z"/></g>
<g><path style="opacity:0.014" fill="#8a4a2a" d="M 23.5,280.5 C 24.5,280.5 25.5,280.5 26.5,280.5C 26.5,290.833 26.5,301.167 26.5,311.5C 25.5,311.5 24.5,311.5 23.5,311.5C 23.5,301.167 23.5,290.833 23.5,280.5 Z"/></g>
<g><path style="opacity:0.953" fill="#8a4a2a" d="M 29.5,281.5 C 40.1667,281.5 50.8333,281.5 61.5,281.5C 61.5,291.5 61.5,301.5 61.5,311.5C 50.8333,311.5 40.1667,311.5 29.5,311.5C 29.5,301.5 29.5,291.5 29.5,281.5 Z"/></g>
<g><path style="opacity:1" fill="#4a2615" d="M 344.5,281.5 C 354.167,281.5 363.833,281.5 373.5,281.5C 373.5,291.167 373.5,300.833 373.5,310.5C 373.5,300.833 373.5,291.167 373.5,281.5C 363.833,281.5 354.167,281.5 344.5,281.5 Z"/></g>
<g><path style="opacity:0.93" fill="#442912" d="M 469.5,282.5 C 469.5,303.167 469.5,323.833 469.5,344.5C 461.167,344.5 452.833,344.5 444.5,344.5C 444.5,345.5 444.5,346.5 444.5,347.5C 453.004,347.033 461.337,347.533 469.5,349C 461.337,350.467 453.004,350.967 444.5,350.5C 444.666,358.174 444.5,365.841 444,373.5C 443.692,374.308 443.192,374.975 442.5,375.5C 441.501,365.188 441.168,354.855 441.5,344.5C 440.5,344.5 439.5,344.5 438.5,344.5C 438.5,323.833 438.5,303.167 438.5,282.5C 448.833,282.5 459.167,282.5 469.5,282.5 Z"/></g>
<g><path style="opacity:0.014" fill="#442912" d="M 472.5,280.5 C 473.5,280.5 474.5,280.5 475.5,280.5C 475.988,301.984 475.488,323.318 474,344.5C 472.512,323.318 472.012,301.984 472.5,280.5 Z"/></g>
<g><path style="opacity:1" fill="#9a5a31" d="M 281.5,281.5 C 281.827,291.681 281.494,301.681 280.5,311.5C 270.013,312.494 259.346,312.828 248.5,312.5C 238.681,311.506 228.681,311.173 218.5,311.5C 218.5,301.5 218.5,291.5 218.5,281.5C 239.5,280.167 260.5,280.167 281.5,281.5 Z"/></g>
<g><path style="opacity:1" fill="#3f1f13" d="M 250.5,281.5 C 260.348,281.173 270.014,281.506 279.5,282.5C 279.5,291.833 279.5,301.167 279.5,310.5C 269.442,311.14 259.775,310.473 250.5,308.5C 259.082,307.53 267.749,307.197 276.5,307.5C 276.5,300.167 276.5,292.833 276.5,285.5C 268.833,285.5 261.167,285.5 253.5,285.5C 253.83,292.2 253.497,298.866 252.5,305.5C 251.833,298.345 251.167,291.345 250.5,284.5C 250.5,283.833 250.5,283.167 250.5,282.5C 250.5,282.167 250.5,281.833 250.5,281.5 Z"/></g>
<g><path style="opacity:1" fill="#ac6c39" d="M 342.5,280.5 C 343.167,280.5 343.833,280.5 344.5,280.5C 344.5,280.833 344.5,281.167 344.5,281.5C 343.506,291.319 343.173,301.319 343.5,311.5C 343.167,311.5 342.833,311.5 342.5,311.5C 342.5,301.167 342.5,290.833 342.5,280.5 Z"/></g>
<g><path style="opacity:1" fill="#572f1a" d="M 347.5,284.5 C 355.167,284.5 362.833,284.5 370.5,284.5C 370.5,292.167 370.5,299.833 370.5,307.5C 362.833,307.5 355.167,307.5 347.5,307.5C 347.5,299.833 347.5,292.167 347.5,284.5 Z"/></g>
<g><path style="opacity:1" fill="#86512b" d="M 344.5,281.5 C 344.5,281.167 344.5,280.833 344.5,280.5C 354.5,280.5 364.5,280.5 374.5,280.5C 374.828,291.014 374.494,301.347 373.5,311.5C 373.5,311.167 373.5,310.833 373.5,310.5C 373.5,300.833 373.5,291.167 373.5,281.5C 363.833,281.5 354.167,281.5 344.5,281.5 Z"/></g>
<g><path style="opacity:1" fill="#855025" d="M 436.5,280.5 C 447.5,280.5 458.5,280.5 469.5,280.5C 469.5,280.833 469.5,281.167 469.5,281.5C 458.833,281.5 448.167,281.5 437.5,281.5C 437.5,291.5 437.5,301.5 437.5,311.5C 437.167,311.5 436.833,311.5 436.5,311.5C 436.5,301.167 436.5,290.833 436.5,280.5 Z"/></g>
<g><path style="opacity:1" fill="#e8984f" d="M 342.5,280.5 C 342.5,290.833 342.5,301.167 342.5,311.5C 352.781,313.476 363.448,314.143 374.5,313.5C 374.194,323.25 374.527,332.916 375.5,342.5C 364.551,343.455 353.551,343.789 342.5,343.5C 332.833,343.5 323.167,343.5 313.5,343.5C 302.265,342.181 290.931,342.181 279.5,343.5C 279.167,343.5 278.833,343.5 278.5,343.5C 238.337,342.501 198.003,342.168 157.5,342.5C 157.25,322.498 156.917,302.498 156.5,282.5C 166.5,282.5 176.5,282.5 186.5,282.5C 186.5,292.5 186.5,302.5 186.5,312.5C 196.833,312.5 207.167,312.5 217.5,312.5C 227.833,312.5 238.167,312.5 248.5,312.5C 259.346,312.828 270.013,312.494 280.5,311.5C 281.494,301.681 281.827,291.681 281.5,281.5C 301.758,280.512 322.091,280.179 342.5,280.5 Z"/></g>
<g><path style="opacity:1" fill="#814327" d="M 250.5,281.5 C 250.5,281.833 250.5,282.167 250.5,282.5C 249.506,291.652 249.173,300.985 249.5,310.5C 239.5,310.5 229.5,310.5 219.5,310.5C 219.5,301.167 219.5,291.833 219.5,282.5C 229.885,282.786 240.218,282.452 250.5,281.5 Z"/></g>
<g><path style="opacity:1" fill="#8b4b2b" d="M 245.5,284.5 C 246.5,284.5 247.5,284.5 248.5,284.5C 248.815,292.42 248.482,300.253 247.5,308C 239.173,308.5 230.84,308.666 222.5,308.5C 222.5,300.833 222.5,293.167 222.5,285.5C 230.352,285.825 238.018,285.492 245.5,284.5 Z"/></g>
<g><path style="opacity:1" fill="#60361e" d="M 250.5,282.5 C 250.5,283.167 250.5,283.833 250.5,284.5C 250.5,292.5 250.5,300.5 250.5,308.5C 259.775,310.473 269.442,311.14 279.5,310.5C 279.5,301.167 279.5,291.833 279.5,282.5C 280.494,291.986 280.827,301.652 280.5,311.5C 269.986,311.828 259.653,311.494 249.5,310.5C 249.173,300.985 249.506,291.652 250.5,282.5 Z"/></g>
<g><path style="opacity:1" fill="#4b2817" d="M 250.5,284.5 C 251.167,291.345 251.833,298.345 252.5,305.5C 253.497,298.866 253.83,292.2 253.5,285.5C 261.167,285.5 268.833,285.5 276.5,285.5C 276.5,292.833 276.5,300.167 276.5,307.5C 267.749,307.197 259.082,307.53 250.5,308.5C 250.5,300.5 250.5,292.5 250.5,284.5 Z"/></g>
<g><path style="opacity:1" fill="#794726" d="M 344.5,281.5 C 344.5,291.167 344.5,300.833 344.5,310.5C 354.167,310.5 363.833,310.5 373.5,310.5C 373.5,310.833 373.5,311.167 373.5,311.5C 363.5,312.833 353.5,312.833 343.5,311.5C 343.173,301.319 343.506,291.319 344.5,281.5 Z"/></g>
<g><path style="opacity:1" fill="#c57538" d="M 435.5,280.5 C 435.833,280.5 436.167,280.5 436.5,280.5C 436.5,290.833 436.5,301.167 436.5,311.5C 436.5,311.833 436.5,312.167 436.5,312.5C 426.167,312.5 415.833,312.5 405.5,312.5C 405.5,322.5 405.5,332.5 405.5,342.5C 405.167,342.5 404.833,342.5 404.5,342.5C 404.5,332.5 404.5,322.5 404.5,312.5C 404.833,311.833 405.167,311.167 405.5,310.5C 405.833,310.5 406.167,310.5 406.5,310.5C 416.167,310.5 425.833,310.5 435.5,310.5C 435.5,300.833 435.5,291.167 435.5,281.5C 435.5,281.167 435.5,280.833 435.5,280.5 Z"/></g>
<g><path style="opacity:1" fill="#b96f3a" d="M 217.5,281.5 C 217.833,281.5 218.167,281.5 218.5,281.5C 218.5,291.5 218.5,301.5 218.5,311.5C 228.681,311.173 238.681,311.506 248.5,312.5C 238.167,312.5 227.833,312.5 217.5,312.5C 217.5,312.167 217.5,311.833 217.5,311.5C 217.5,301.5 217.5,291.5 217.5,281.5 Z"/></g>
<g><path style="opacity:1" fill="#d9833e" d="M 94.5,311.5 C 104.167,311.5 113.833,311.5 123.5,311.5C 123.5,321.833 123.5,332.167 123.5,342.5C 113.833,342.5 104.167,342.5 94.5,342.5C 94.5,332.167 94.5,321.833 94.5,311.5 Z"/></g>
<g><path style="opacity:1" fill="#d9833d" d="M 375.5,312.5 C 385.167,312.5 394.833,312.5 404.5,312.5C 404.5,322.5 404.5,332.5 404.5,342.5C 394.833,342.5 385.167,342.5 375.5,342.5C 374.527,332.916 374.194,323.25 374.5,313.5C 374.5,312.833 374.833,312.5 375.5,312.5 Z"/></g>
<g><path style="opacity:0.014" fill="#442912" d="M 23.5,311.5 C 24.5,311.5 25.5,311.5 26.5,311.5C 26.9758,322.663 26.4758,333.663 25,344.5C 23.5242,333.663 23.0242,322.663 23.5,311.5 Z"/></g>
<g><path style="opacity:0.909" fill="#442912" d="M 29.5,312.5 C 40.0135,312.172 50.3468,312.506 60.5,313.5C 60.5,323.833 60.5,334.167 60.5,344.5C 59.5,344.5 58.5,344.5 57.5,344.5C 57.8319,354.855 57.4986,365.188 56.5,375.5C 55.8076,374.975 55.3076,374.308 55,373.5C 54.5003,365.841 54.3336,358.174 54.5,350.5C 45.9959,350.967 37.6626,350.467 29.5,349C 37.6626,347.533 45.9959,347.033 54.5,347.5C 54.5,346.5 54.5,345.5 54.5,344.5C 46.1667,344.5 37.8333,344.5 29.5,344.5C 29.5,333.833 29.5,323.167 29.5,312.5 Z"/></g>
<g><path style="opacity:1" fill="#8a4a2a" d="M 61.5,311.5 C 61.8333,311.5 62.1667,311.5 62.5,311.5C 62.8333,311.5 63.1667,311.5 63.5,311.5C 72.9856,312.494 82.6522,312.827 92.5,312.5C 92.5,322.5 92.5,332.5 92.5,342.5C 82.5,342.5 72.5,342.5 62.5,342.5C 62.8083,332.085 62.475,321.751 61.5,311.5 Z"/></g>
<g><path style="opacity:1" fill="#bb6d36" d="M 63.5,311.5 C 73.1667,311.5 82.8333,311.5 92.5,311.5C 93.1667,311.5 93.8333,311.5 94.5,311.5C 94.5,321.833 94.5,332.167 94.5,342.5C 104.167,342.5 113.833,342.5 123.5,342.5C 113.681,343.494 103.681,343.827 93.5,343.5C 93.5,342.833 93.1667,342.5 92.5,342.5C 92.5,332.5 92.5,322.5 92.5,312.5C 82.6522,312.827 72.9856,312.494 63.5,311.5 Z"/></g>
<g><path style="opacity:1" fill="#b86d34" d="M 155.5,311.5 C 145.319,311.173 135.319,311.506 125.5,312.5C 124.506,322.319 124.173,332.319 124.5,342.5C 124.167,342.5 123.833,342.5 123.5,342.5C 123.5,332.167 123.5,321.833 123.5,311.5C 134.265,310.182 144.931,310.182 155.5,311.5 Z"/></g>
<g><path style="opacity:1" fill="#754221" d="M 125.5,312.5 C 135.348,312.173 145.014,312.506 154.5,313.5C 144.833,313.5 135.167,313.5 125.5,313.5C 125.5,323.167 125.5,332.833 125.5,342.5C 125.167,342.5 124.833,342.5 124.5,342.5C 124.173,332.319 124.506,322.319 125.5,312.5 Z"/></g>
<g><path style="opacity:1" fill="#a56635" d="M 125.5,312.5 C 135.319,311.506 145.319,311.173 155.5,311.5C 156.494,321.653 156.828,331.986 156.5,342.5C 156.167,342.5 155.833,342.5 155.5,342.5C 155.827,332.652 155.494,322.986 154.5,313.5C 145.014,312.506 135.348,312.173 125.5,312.5 Z"/></g>
<g><path style="opacity:1" fill="#97532d" d="M 436.5,312.5 C 436.5,312.833 436.5,313.167 436.5,313.5C 426.833,313.5 417.167,313.5 407.5,313.5C 407.5,323.167 407.5,332.833 407.5,342.5C 406.833,342.5 406.167,342.5 405.5,342.5C 405.5,332.5 405.5,322.5 405.5,312.5C 415.833,312.5 426.167,312.5 436.5,312.5 Z"/></g>
<g><path style="opacity:0.88" fill="#442912" d="M 60.5,344.5 C 70.8333,344.5 81.1667,344.5 91.5,344.5C 91.5,354.833 91.5,365.167 91.5,375.5C 90.5,375.5 89.5,375.5 88.5,375.5C 88.2865,377.144 88.6198,378.644 89.5,380C 88.8462,388.774 88.1795,397.608 87.5,406.5C 86.5021,398.193 86.1688,389.86 86.5,381.5C 77.6638,381.969 68.9972,381.469 60.5,380C 69.1603,379.5 77.8269,379.334 86.5,379.5C 86.5,378.5 86.5,377.5 86.5,376.5C 78.1114,376.803 69.778,376.47 61.5,375.5C 60.5014,365.188 60.1681,354.855 60.5,344.5 Z"/></g>
<g><path style="opacity:0.88" fill="#442912" d="M 438.5,344.5 C 438.832,354.855 438.499,365.188 437.5,375.5C 429.222,376.47 420.889,376.803 412.5,376.5C 412.5,377.5 412.5,378.5 412.5,379.5C 421.173,379.334 429.84,379.5 438.5,380C 430.003,381.469 421.336,381.969 412.5,381.5C 412.831,389.86 412.498,398.193 411.5,406.5C 410.82,397.608 410.154,388.774 409.5,380C 410.38,378.644 410.714,377.144 410.5,375.5C 409.5,375.5 408.5,375.5 407.5,375.5C 407.5,365.167 407.5,354.833 407.5,344.5C 417.833,344.5 428.167,344.5 438.5,344.5 Z"/></g>
<g><path style="opacity:0.994" fill="#62381c" d="M 29.5,312.5 C 29.5,312.167 29.5,311.833 29.5,311.5C 40.1667,311.5 50.8333,311.5 61.5,311.5C 62.475,321.751 62.8083,332.085 62.5,342.5C 72.5,342.5 82.5,342.5 92.5,342.5C 93.1667,342.5 93.5,342.833 93.5,343.5C 93.5,353.833 93.5,364.167 93.5,374.5C 114.167,374.5 134.833,374.5 155.5,374.5C 155.5,374.833 155.5,375.167 155.5,375.5C 134.5,375.5 113.5,375.5 92.5,375.5C 92.5,364.833 92.5,354.167 92.5,343.5C 82.1667,343.5 71.8333,343.5 61.5,343.5C 61.8274,333.319 61.494,323.319 60.5,313.5C 50.3468,312.506 40.0135,312.172 29.5,312.5 Z"/></g>
<g><path style="opacity:0.994" fill="#63381d" d="M 436.5,311.5 C 436.833,311.5 437.167,311.5 437.5,311.5C 437.5,322.167 437.5,332.833 437.5,343.5C 427.167,343.5 416.833,343.5 406.5,343.5C 406.5,354.167 406.5,364.833 406.5,375.5C 385.5,375.5 364.5,375.5 343.5,375.5C 343.5,385.833 343.5,396.167 343.5,406.5C 332.833,406.5 322.167,406.5 311.5,406.5C 311.5,406.167 311.5,405.833 311.5,405.5C 321.833,405.5 332.167,405.5 342.5,405.5C 342.5,395.5 342.5,385.5 342.5,375.5C 342.5,375.167 342.5,374.833 342.5,374.5C 353.167,374.5 363.833,374.5 374.5,374.5C 384.833,374.5 395.167,374.5 405.5,374.5C 405.5,364.167 405.5,353.833 405.5,343.5C 405.5,343.167 405.5,342.833 405.5,342.5C 406.167,342.5 406.833,342.5 407.5,342.5C 417.167,342.5 426.833,342.5 436.5,342.5C 436.5,332.833 436.5,323.167 436.5,313.5C 436.5,313.167 436.5,312.833 436.5,312.5C 436.5,312.167 436.5,311.833 436.5,311.5 Z"/></g>
<g><path style="opacity:0.906" fill="#442912" d="M 91.5,376.5 C 112.5,376.5 133.5,376.5 154.5,376.5C 154.5,386.833 154.5,397.167 154.5,407.5C 153.85,407.196 153.183,406.863 152.5,406.5C 151.979,417.309 151.146,427.976 150,438.5C 148.531,430.003 148.031,421.336 148.5,412.5C 73.8333,411.833 73.8333,411.167 148.5,410.5C 148.5,409.5 148.5,408.5 148.5,407.5C 129.5,407.5 110.5,407.5 91.5,407.5C 91.5,397.167 91.5,386.833 91.5,376.5 Z"/></g>
<g><path style="opacity:0.906" fill="#442912" d="M 407.5,376.5 C 407.5,386.833 407.5,397.167 407.5,407.5C 388.5,407.5 369.5,407.5 350.5,407.5C 350.5,408.5 350.5,409.5 350.5,410.5C 425.167,411.167 425.167,411.833 350.5,412.5C 350.969,421.336 350.469,430.003 349,438.5C 347.854,427.976 347.021,417.309 346.5,406.5C 345.817,406.863 345.15,407.196 344.5,407.5C 344.5,397.167 344.5,386.833 344.5,376.5C 365.5,376.5 386.5,376.5 407.5,376.5 Z"/></g>
<g><path style="opacity:0.995" fill="#4b2d15" d="M 469.5,281.5 C 469.5,281.833 469.5,282.167 469.5,282.5C 459.167,282.5 448.833,282.5 438.5,282.5C 438.5,303.167 438.5,323.833 438.5,344.5C 428.167,344.5 417.833,344.5 407.5,344.5C 407.5,354.833 407.5,365.167 407.5,375.5C 407.5,375.833 407.5,376.167 407.5,376.5C 386.5,376.5 365.5,376.5 344.5,376.5C 344.5,386.833 344.5,397.167 344.5,407.5C 281.167,407.5 217.833,407.5 154.5,407.5C 154.5,397.167 154.5,386.833 154.5,376.5C 133.5,376.5 112.5,376.5 91.5,376.5C 91.5,376.167 91.5,375.833 91.5,375.5C 91.5,365.167 91.5,354.833 91.5,344.5C 81.1667,344.5 70.8333,344.5 60.5,344.5C 60.5,334.167 60.5,323.833 60.5,313.5C 61.494,323.319 61.8274,333.319 61.5,343.5C 71.8333,343.5 82.1667,343.5 92.5,343.5C 92.5,354.167 92.5,364.833 92.5,375.5C 113.5,375.5 134.5,375.5 155.5,375.5C 155.5,385.833 155.5,396.167 155.5,406.5C 207.5,406.5 259.5,406.5 311.5,406.5C 322.167,406.5 332.833,406.5 343.5,406.5C 343.5,396.167 343.5,385.833 343.5,375.5C 364.5,375.5 385.5,375.5 406.5,375.5C 406.5,364.833 406.5,354.167 406.5,343.5C 416.833,343.5 427.167,343.5 437.5,343.5C 437.5,332.833 437.5,322.167 437.5,311.5C 437.5,301.5 437.5,291.5 437.5,281.5C 448.167,281.5 458.833,281.5 469.5,281.5 Z"/></g>
<g><path style="opacity:0.997" fill="#6a3e1e" d="M 155.5,375.5 C 155.833,375.5 156.167,375.5 156.5,375.5C 156.5,385.5 156.5,395.5 156.5,405.5C 166.5,405.5 176.5,405.5 186.5,405.5C 228.167,405.5 269.833,405.5 311.5,405.5C 311.5,405.833 311.5,406.167 311.5,406.5C 259.5,406.5 207.5,406.5 155.5,406.5C 155.5,396.167 155.5,385.833 155.5,375.5 Z"/></g>
<g><path style="opacity:1" fill="#a2632e" d="M 155.5,375.5 C 155.5,375.167 155.5,374.833 155.5,374.5C 166.5,374.5 177.5,374.5 188.5,374.5C 188.758,384.539 188.424,394.539 187.5,404.5C 228.833,404.5 270.167,404.5 311.5,404.5C 311.5,404.833 311.5,405.167 311.5,405.5C 269.833,405.5 228.167,405.5 186.5,405.5C 176.5,405.5 166.5,405.5 156.5,405.5C 156.5,395.5 156.5,385.5 156.5,375.5C 156.167,375.5 155.833,375.5 155.5,375.5 Z"/></g>
<g><path style="opacity:1" fill="#8a4a2a" d="M 342.5,375.5 C 342.5,385.5 342.5,395.5 342.5,405.5C 332.167,405.5 321.833,405.5 311.5,405.5C 311.5,405.167 311.5,404.833 311.5,404.5C 312.494,395.014 312.827,385.348 312.5,375.5C 322.5,375.5 332.5,375.5 342.5,375.5 Z"/></g>
<g><path style="opacity:1" fill="#9a5a2d" d="M 311.5,343.5 C 312.494,353.653 312.828,363.986 312.5,374.5C 322.5,374.5 332.5,374.5 342.5,374.5C 342.5,374.833 342.5,375.167 342.5,375.5C 332.5,375.5 322.5,375.5 312.5,375.5C 312.827,385.348 312.494,395.014 311.5,404.5C 311.5,394.833 311.5,385.167 311.5,375.5C 301.167,375.5 290.833,375.5 280.5,375.5C 280.172,364.986 280.506,354.653 281.5,344.5C 281.5,354.5 281.5,364.5 281.5,374.5C 291.5,374.5 301.5,374.5 311.5,374.5C 311.5,364.167 311.5,353.833 311.5,343.5 Z"/></g>
<g><path style="opacity:1" fill="#8a4a2a" d="M 156.5,375.5 C 166.5,375.5 176.5,375.5 186.5,375.5C 186.5,385.5 186.5,395.5 186.5,405.5C 186.5,395.5 186.5,385.5 186.5,375.5C 176.5,375.5 166.5,375.5 156.5,375.5 Z"/></g>
<g><path style="opacity:1" fill="#b97334" d="M 313.5,343.5 C 313.5,353.5 313.5,363.5 313.5,373.5C 323.5,373.5 333.5,373.5 343.5,373.5C 342.576,363.539 342.242,353.539 342.5,343.5C 353.551,343.789 364.551,343.455 375.5,342.5C 385.167,342.5 394.833,342.5 404.5,342.5C 404.833,342.5 405.167,342.5 405.5,342.5C 405.5,342.833 405.5,343.167 405.5,343.5C 395.494,343.334 385.494,343.5 375.5,344C 374.514,354.084 374.181,364.251 374.5,374.5C 363.833,374.5 353.167,374.5 342.5,374.5C 332.5,374.5 322.5,374.5 312.5,374.5C 312.828,363.986 312.494,353.653 311.5,343.5C 301.319,343.173 291.319,343.506 281.5,344.5C 280.506,354.653 280.172,364.986 280.5,375.5C 290.833,375.5 301.167,375.5 311.5,375.5C 311.5,385.167 311.5,394.833 311.5,404.5C 270.167,404.5 228.833,404.5 187.5,404.5C 188.424,394.539 188.758,384.539 188.5,374.5C 218.833,374.5 249.167,374.5 279.5,374.5C 279.5,364.167 279.5,353.833 279.5,343.5C 290.931,342.181 302.265,342.181 313.5,343.5 Z"/></g>
<g><path style="opacity:1" fill="#60361d" d="M 311.5,343.5 C 311.5,353.833 311.5,364.167 311.5,374.5C 301.5,374.5 291.5,374.5 281.5,374.5C 281.5,364.5 281.5,354.5 281.5,344.5C 291.319,343.506 301.319,343.173 311.5,343.5 Z"/></g>
<g><path style="opacity:1" fill="#8a4a2a" d="M 405.5,343.5 C 405.5,353.833 405.5,364.167 405.5,374.5C 395.167,374.5 384.833,374.5 374.5,374.5C 374.181,364.251 374.514,354.084 375.5,344C 385.494,343.5 395.494,343.334 405.5,343.5 Z"/></g>
<g><path style="opacity:1" fill="#b77134" d="M 154.5,342.5 C 154.833,342.5 155.167,342.5 155.5,342.5C 145.889,344.474 135.889,345.141 125.5,344.5C 125.5,345.5 125.5,346.5 125.5,347.5C 135.167,347.5 144.833,347.5 154.5,347.5C 154.5,355.167 154.5,362.833 154.5,370.5C 144.833,370.5 135.167,370.5 125.5,370.5C 125.5,371.5 125.5,372.5 125.5,373.5C 124.506,363.681 124.173,353.681 124.5,343.5C 134.681,343.827 144.681,343.494 154.5,342.5 Z"/></g>
<g><path style="opacity:1" fill="#8a4a2a" d="M 123.5,342.5 C 123.833,342.5 124.167,342.5 124.5,342.5C 124.833,342.5 125.167,342.5 125.5,342.5C 135.167,342.5 144.833,342.5 154.5,342.5C 144.681,343.494 134.681,343.827 124.5,343.5C 124.173,353.681 124.506,363.681 125.5,373.5C 135.5,373.5 145.5,373.5 155.5,373.5C 155.5,373.833 155.5,374.167 155.5,374.5C 134.833,374.5 114.167,374.5 93.5,374.5C 93.5,364.167 93.5,353.833 93.5,343.5C 103.681,343.827 113.681,343.494 123.5,342.5 Z"/></g>
<g><path style="opacity:1" fill="#3d1e12" d="M 282.5,344.5 C 291.833,344.5 301.167,344.5 310.5,344.5C 310.5,354.167 310.5,363.833 310.5,373.5C 301.167,373.5 291.833,373.5 282.5,373.5C 282.5,363.833 282.5,354.167 282.5,344.5 Z"/></g>
<g><path style="opacity:1" fill="#4b2817" d="M 284.5,347.5 C 292.528,347.169 300.528,347.502 308.5,348.5C 307.535,355.776 307.201,363.109 307.5,370.5C 299.833,370.5 292.167,370.5 284.5,370.5C 284.5,362.833 284.5,355.167 284.5,347.5 Z"/></g>
<g><path style="opacity:1" fill="#c27837" d="M 155.5,342.5 C 155.833,342.5 156.167,342.5 156.5,342.5C 156.5,342.833 156.5,343.167 156.5,343.5C 156.758,353.539 156.424,363.539 155.5,373.5C 145.5,373.5 135.5,373.5 125.5,373.5C 125.5,372.5 125.5,371.5 125.5,370.5C 135.167,370.5 144.833,370.5 154.5,370.5C 154.5,362.833 154.5,355.167 154.5,347.5C 144.833,347.5 135.167,347.5 125.5,347.5C 125.5,346.5 125.5,345.5 125.5,344.5C 135.889,345.141 145.889,344.474 155.5,342.5 Z"/></g>
<g><path style="opacity:1" fill="#da833e" d="M 313.5,343.5 C 323.167,343.5 332.833,343.5 342.5,343.5C 342.242,353.539 342.576,363.539 343.5,373.5C 333.5,373.5 323.5,373.5 313.5,373.5C 313.5,363.5 313.5,353.5 313.5,343.5 Z"/></g>
<g><path style="opacity:1" fill="#d8823d" d="M 156.5,343.5 C 197.472,343.511 238.139,343.511 278.5,343.5C 278.833,343.5 279.167,343.5 279.5,343.5C 279.5,353.833 279.5,364.167 279.5,374.5C 249.167,374.5 218.833,374.5 188.5,374.5C 177.5,374.5 166.5,374.5 155.5,374.5C 155.5,374.167 155.5,373.833 155.5,373.5C 156.424,363.539 156.758,353.539 156.5,343.5 Z"/></g>
<g><path style="opacity:1" fill="#8a4a2a" d="M 436.5,313.5 C 436.5,323.167 436.5,332.833 436.5,342.5C 426.833,342.5 417.167,342.5 407.5,342.5C 407.5,332.833 407.5,323.167 407.5,313.5C 417.167,313.5 426.833,313.5 436.5,313.5 Z"/></g>
<g><path style="opacity:1" fill="#4e2917" d="M 154.5,313.5 C 155.494,322.986 155.827,332.652 155.5,342.5C 155.167,342.5 154.833,342.5 154.5,342.5C 144.833,342.5 135.167,342.5 125.5,342.5C 125.5,332.833 125.5,323.167 125.5,313.5C 135.167,313.5 144.833,313.5 154.5,313.5 Z"/></g>
<g><path style="opacity:1" fill="#572f1a" d="M 128.5,316.5 C 136.167,316.5 143.833,316.5 151.5,316.5C 151.5,324.167 151.5,331.833 151.5,339.5C 143.833,339.5 136.167,339.5 128.5,339.5C 128.5,331.833 128.5,324.167 128.5,316.5 Z"/></g>
<g><path style="opacity:0.986" fill="#3e2510" d="M 154.5,407.5 C 217.833,407.5 281.167,407.5 344.5,407.5C 344.5,408.5 344.5,409.5 344.5,410.5C 281.167,410.5 217.833,410.5 154.5,410.5C 154.5,409.5 154.5,408.5 154.5,407.5 Z"/></g>
<g><path style="opacity:0.93" fill="#452a13" d="M 154.5,410.5 C 217.833,410.5 281.167,410.5 344.5,410.5C 344.5,419.833 344.5,429.167 344.5,438.5C 281.167,438.5 217.833,438.5 154.5,438.5C 154.5,429.167 154.5,419.833 154.5,410.5 Z"/></g>
<g><path style="opacity:0.016" fill="#442a12" d="M 154.5,441.5 C 217.837,441.167 281.17,441.5 344.5,442.5C 343.975,443.192 343.308,443.692 342.5,444C 280.5,444.667 218.5,444.667 156.5,444C 155.244,443.583 154.577,442.75 154.5,441.5 Z"/></g>
</svg>
